<svg xmlns="http://www.w3.org/2000/svg" width="47.699" height="47.692" viewBox="0 0 47.699 47.692">
  <defs>
    <style>
      .cls-1 {
        fill: #7ca7ad;
      }
    </style>
  </defs>
  <g id="Grupo_119" data-name="Grupo 119" transform="translate(-357.71 -339.107)">
    <path id="Trazado_1" data-name="Trazado 1" class="cls-1" d="M357.71,339.107V386.8h7.482l-3.977-5.223s4.264,2.77,8.479,5.223h14.2a5.179,5.179,0,0,0-1-.513,4.772,4.772,0,0,0-1.206-2.524,7.612,7.612,0,0,0-2.311-1.28,4.506,4.506,0,0,0-1.533-2.766c-1.6-1.668-2.544-1.768-2.544-1.768l-4.276-5.829s14.228,9.589,16.242,9.211a3.557,3.557,0,0,0,1.873,2.142c1.624.908,2.38.884,3.2.688a3.137,3.137,0,0,0,1.562,2.43,3.051,3.051,0,0,0,.432.209H396.4a2,2,0,0,0-.519-1.571,2.789,2.789,0,0,0-1.686-.844,7.069,7.069,0,0,0-.735-3.052,4.07,4.07,0,0,0-1.789-1.684,4.3,4.3,0,0,0-.737-3.361c-1.158-1.266-1.574-1.685-1.574-1.685a6.31,6.31,0,0,0-.843-3.05,6.445,6.445,0,0,0-1.685-1.787,4.76,4.76,0,0,0-.575-2.736,7.588,7.588,0,0,0-1.948-1.785s.289-1.1-.839-3.048c-1.162-2-2.055-2.316-2.055-2.316L378.63,353.2s11.567,12.672,13.619,12.775a3.568,3.568,0,0,0,1.314,2.528c1.37,1.259,2.109,1.415,2.946,1.415a3.119,3.119,0,0,0,.948,2.727,2.615,2.615,0,0,0,2.524.8,5.193,5.193,0,0,0,1.355,2.806,4.95,4.95,0,0,0,2.325,1.246l1.749,2.539V339.107Z" transform="translate(0)"/>
  </g>
</svg>
